<svg xmlns="http://www.w3.org/2000/svg" width="151" height="32" viewBox="0 0 151 32">
  <defs>
    <style>
      .cls-1 {
        fill: #002379;
        fill-rule: evenodd;
      }

      .cls-2 {
        fill: #fa5a5a;
      }

      .cls-3 {
        fill: #34b3d7;
      }

      .cls-4 {
        fill: #ff952e;
      }

      .cls-5 {
        fill: #ff1276;
      }

      .cls-6 {
        fill: #c23ed6;
      }
    </style>
  </defs>
  <path id="alumfy.com" class="cls-1" d="M37.891,16.064a4.107,4.107,0,0,0-2.259.644,4.367,4.367,0,0,0-1.587,1.857,6.573,6.573,0,0,0-.579,2.856,6.634,6.634,0,0,0,.579,2.865,4.357,4.357,0,0,0,1.587,1.867,4.106,4.106,0,0,0,2.259.644,3.715,3.715,0,0,0,1.913-.476,2.932,2.932,0,0,0,1.2-1.316v1.661h3.659V16.195H41.008v1.661a2.932,2.932,0,0,0-1.2-1.316,3.716,3.716,0,0,0-1.913-.476h0ZM39.1,19.275a1.788,1.788,0,0,1,1.363.579,2.2,2.2,0,0,1,.541,1.568,2.231,2.231,0,0,1-.541,1.587,1.787,1.787,0,0,1-1.363.579,1.815,1.815,0,0,1-1.391-.569,2.248,2.248,0,0,1-.532-1.6,2.221,2.221,0,0,1,.532-1.577,1.815,1.815,0,0,1,1.391-.569h0Zm7.578-6.421V26.667H50.36V12.853H46.682Zm12.805,3.341v5.544A2.086,2.086,0,0,1,59,23.213a1.7,1.7,0,0,1-1.307.523,1.659,1.659,0,0,1-1.279-.513,1.992,1.992,0,0,1-.476-1.409V16.195H52.282v6.067a4.885,4.885,0,0,0,1.036,3.295,3.558,3.558,0,0,0,2.847,1.2,3.911,3.911,0,0,0,2.016-.5,3.39,3.39,0,0,0,1.307-1.344v1.755h3.659V16.195H59.488ZM78.957,16.1a3.87,3.87,0,0,0-2.035.551,4.158,4.158,0,0,0-1.456,1.465,3.611,3.611,0,0,0-1.4-1.493,4.038,4.038,0,0,0-2.072-.523,3.744,3.744,0,0,0-1.885.457A3.283,3.283,0,0,0,68.858,17.8V16.195H65.181V26.667h3.677V21.1a1.831,1.831,0,0,1,.476-1.353,1.753,1.753,0,0,1,1.3-.476,1.691,1.691,0,0,1,1.251.467,1.767,1.767,0,0,1,.467,1.307v5.619h3.659V21.1a1.83,1.83,0,0,1,.476-1.353,1.752,1.752,0,0,1,1.3-.476,1.691,1.691,0,0,1,1.251.467,1.768,1.768,0,0,1,.467,1.307v5.619h3.659V20.581A4.638,4.638,0,0,0,82.046,17.3,4.011,4.011,0,0,0,78.957,16.1h0Zm11.928-.989V11.995q-0.523-.037-0.765-0.037a4.863,4.863,0,0,0-3.435,1.111,4.058,4.058,0,0,0-1.195,3.127H84.3v3.061H85.49v7.411h3.677V19.256h1.717V16.195h-1.7a1.214,1.214,0,0,1,.355-0.849,1.464,1.464,0,0,1,.952-0.252,3.045,3.045,0,0,1,.392.019h0Zm0.131,1.083,4.368,10.024-2.557,5.451h4.032l6.627-15.475h-4.07l-2.072,5.861L95.1,16.195H91.015Zm12.862,6.888v3.584h3.714V23.083h-3.714Zm10.061-7.019a5.8,5.8,0,0,0-2.763.644,4.555,4.555,0,0,0-1.885,1.857,5.8,5.8,0,0,0-.672,2.856,5.856,5.856,0,0,0,.672,2.865,4.554,4.554,0,0,0,1.876,1.867,5.783,5.783,0,0,0,2.772.644,5.193,5.193,0,0,0,3.416-1.139,5.049,5.049,0,0,0,1.736-3.136h-3.883a1.5,1.5,0,0,1-.476.831,1.333,1.333,0,0,1-.887.289,1.3,1.3,0,0,1-1.092-.56,2.748,2.748,0,0,1-.42-1.661,2.756,2.756,0,0,1,.42-1.652,1.3,1.3,0,0,1,1.092-.569,1.335,1.335,0,0,1,.887.289,1.507,1.507,0,0,1,.476.831h3.883a5.01,5.01,0,0,0-1.736-3.127,5.222,5.222,0,0,0-3.416-1.129h0Zm11.573,0a6.07,6.07,0,0,0-2.819.644,4.738,4.738,0,0,0-1.96,1.857,5.557,5.557,0,0,0-.709,2.856,5.556,5.556,0,0,0,.709,2.856,4.8,4.8,0,0,0,1.96,1.867,6,6,0,0,0,2.819.653,5.935,5.935,0,0,0,2.809-.653,4.812,4.812,0,0,0,1.951-1.867,5.556,5.556,0,0,0,.709-2.856,5.569,5.569,0,0,0-.709-2.847,4.735,4.735,0,0,0-1.951-1.867,6.008,6.008,0,0,0-2.809-.644h0Zm0,3.173a1.615,1.615,0,0,1,1.251.56,2.351,2.351,0,0,1,.5,1.624,2.387,2.387,0,0,1-.5,1.633,1.6,1.6,0,0,1-1.251.569,1.635,1.635,0,0,1-1.269-.56,2.381,2.381,0,0,1-.5-1.643,2.351,2.351,0,0,1,.5-1.624,1.635,1.635,0,0,1,1.269-.56h0Zm20.72-3.136a3.872,3.872,0,0,0-2.035.551,4.158,4.158,0,0,0-1.456,1.465,3.607,3.607,0,0,0-1.4-1.493,4.037,4.037,0,0,0-2.072-.523,3.743,3.743,0,0,0-1.885.457,3.288,3.288,0,0,0-1.251,1.241V16.195h-3.677V26.667h3.677V21.1a1.832,1.832,0,0,1,.476-1.353,1.755,1.755,0,0,1,1.3-.476,1.69,1.69,0,0,1,1.25.467,1.767,1.767,0,0,1,.467,1.307v5.619h3.659V21.1a1.828,1.828,0,0,1,.476-1.353,1.751,1.751,0,0,1,1.3-.476,1.693,1.693,0,0,1,1.251.467,1.771,1.771,0,0,1,.466,1.307v5.619h3.659V20.581A4.639,4.639,0,0,0,149.32,17.3a4.01,4.01,0,0,0-3.089-1.195h0Z"/>
  <path class="cls-1" d="M17.667,30a8.667,8.667,0,1,1,8.667-8.667A8.667,8.667,0,0,1,17.667,30Z"/>
  <circle id="Ellipse_1_copy" data-name="Ellipse 1 copy" class="cls-2" cx="16.328" cy="5.328" r="4.672"/>
  <circle id="Ellipse_1_copy_2" data-name="Ellipse 1 copy 2" class="cls-3" cx="3" cy="14" r="2"/>
  <circle id="Ellipse_1_copy_4" data-name="Ellipse 1 copy 4" class="cls-4" cx="2.672" cy="19.672" r="1.672"/>
  <circle id="Ellipse_1_copy_5" data-name="Ellipse 1 copy 5" class="cls-5" cx="4" cy="24.344" r="1"/>
  <circle id="Ellipse_1_copy_3" data-name="Ellipse 1 copy 3" class="cls-6" cx="7" cy="8.672" r="2.656"/>
</svg>
