<svg xmlns="http://www.w3.org/2000/svg" width="41" height="41" viewBox="0 0 41 41">
  <defs>
    <style>
      .cls-1 {
        fill: #585858;
        fill-rule: evenodd;
      }
    </style>
  </defs>
  <path id="_" data-name="" class="cls-1" d="M17.343,28.365a10.634,10.634,0,0,1-7.8-3.241,10.634,10.634,0,0,1-3.241-7.8,10.635,10.635,0,0,1,3.241-7.8,10.635,10.635,0,0,1,7.8-3.241,10.636,10.636,0,0,1,7.8,3.241,10.637,10.637,0,0,1,3.241,7.8,10.635,10.635,0,0,1-3.241,7.8A10.635,10.635,0,0,1,17.343,28.365Zm22.751,7.247-8.455-8.455A16.88,16.88,0,0,0,34.7,17.322a17.052,17.052,0,0,0-1.368-6.741,16.994,16.994,0,0,0-9.243-9.243,17.295,17.295,0,0,0-13.483,0A16.994,16.994,0,0,0,1.358,10.58a17.295,17.295,0,0,0,0,13.483A16.994,16.994,0,0,0,10.6,33.307a17.051,17.051,0,0,0,6.742,1.368,16.88,16.88,0,0,0,9.835-3.056l8.455,8.43a2.93,2.93,0,0,0,2.218.937,3.155,3.155,0,0,0,2.243-5.373h0Z"/>
</svg>
